STARTFONT 2.1
COMMENT +
COMMENT  Copyright 1984-1989, 1994 Adobe Systems Incorporated.
COMMENT  Copyright 1988, 1994 Digital Equipment Corporation.
COMMENT  Copyright 1996 BIZNET Poland, Inc.
COMMENT
COMMENT  Permission to use, copy, modify, distribute and sell this software
COMMENT  and its documentation for any purpose and without fee is hereby
COMMENT  granted, provided that the above copyright notices appear in all
COMMENT  copies and that both those copyright notices and this permission
COMMENT  notice appear in supporting documentation, and that the names of
COMMENT  Adobe Systems and Digital Equipment Corporation not be used in
COMMENT  advertising or publicity pertaining to distribution of the software
COMMENT  without specific, written prior permission.  Adobe Systems and
COMMENT  Digital Equipment Corporation make no representations about the
COMMENT  suitability of this software for any purpose.  It is provided "as
COMMENT  is" without express or implied warranty.
COMMENT -
FONT -BIZNET-Aplos-Bold-O-Normal--34-240-100-100-P-182-ISO8859-2
SIZE 24 100 100
FONTBOUNDINGBOX 32 32 -1 -7
STARTPROPERTIES 25
FOUNDRY "BIZNET"
FAMILY_NAME "BIZNET Aplos"
WEIGHT_NAME "Bold"
SLANT "O"
SETWIDTH_NAME "Normal"
ADD_STYLE_NAME ""
PIXEL_SIZE 34
POINT_SIZE 240
RESOLUTION_X 100
RESOLUTION_Y 100
SPACING "P"
AVERAGE_WIDTH 182
CHARSET_REGISTRY "ISO8859"
CHARSET_ENCODING "2"
CAP_HEIGHT 25
X_HEIGHT 18
FONT_ASCENT 28
FONT_DESCENT 7
FACE_NAME "BIZNET Aplos Bold Oblique"
DEFAULT_CHAR 32
RELATIVE_SETWIDTH 50
RELATIVE_WEIGHT 70
CHARSET_COLLECTIONS "ASCII ISO8859-2"
COPYRIGHT "Copyright (c) 1984, 1987 Adobe Systems Incorporated. All Rights Reserved. Copyright (c) 1988, 1991 Digital Equipment Corporation. All Rights Reserved. Copyright (c) 1996 BIZNET Poland, Inc. All Rights Reserved."
NOTICE "The name "BIZNET" is a registered trademark of BIZNET Poland, Inc."
ENDPROPERTIES
CHARS 190
STARTCHAR space
ENCODING 32
SWIDTH 278 0
DWIDTH 9 0
BBX 1 1 0 0
BITMAP
00
ENDCHAR
STARTCHAR exclam
ENCODING 33
SWIDTH 333 0
DWIDTH 11 0
BBX 10 25 4 0
BITMAP
07C0
07C0
07C0
0FC0
0F80
0F80
0F80
0F80
0F00
0F00
1F00
1E00
1E00
1E00
1C00
1C00
1C00
1800
0000
0000
7C00
7C00
FC00
F800
F800
ENDCHAR
STARTCHAR quotedbl
ENCODING 34
SWIDTH 474 0
DWIDTH 16 0
BBX 13 9 6 16
BITMAP
F8F8
F8F8
F8F8
F0F0
F0F0
F0F0
E0E0
E0E0
C0C0
ENDCHAR
STARTCHAR numbersign
ENCODING 35
SWIDTH 556 0
DWIDTH 19 0
BBX 21 25 1 -1
BITMAP
001C38
003C78
003878
0078F0
0078F0
00F1E0
00F1E0
1FFFF8
1FFFF8
1FFFF8
1FFFF8
03C780
078780
078F00
070F00
FFFFC0
FFFFC0
FFFFC0
FFFFC0
1C3C00
3C7800
387800
78F000
78F000
70E000
ENDCHAR
STARTCHAR dollar
ENCODING 36
SWIDTH 556 0
DWIDTH 18 0
BBX 18 28 2 -3
BITMAP
001800
001800
01FF00
07FF80
0FFFC0
1FB7C0
1F33C0
3E73C0
3E73C0
3F6000
3FE000
1FF000
0FFC00
03FF00
00FF00
00DF80
00CF80
01CF80
F1CF80
F18F00
F99F00
FFFE00
7FFC00
3FF800
0FE000
030000
060000
060000
ENDCHAR
STARTCHAR percent
ENCODING 37
SWIDTH 889 0
DWIDTH 29 0
BBX 27 23 4 0
BITMAP
07C00600
1FE00E00
3FF01C00
7CF83800
78783000
F0787000
F078E000
F0F1C000
F9F38000
7FE38000
3FC70000
0F0E1F00
001C7F80
0018FFC0
0039F3E0
0071E1E0
00E3C1E0
01C3C1E0
01C3C3C0
0383E7C0
0703FF80
0E01FF00
0C007C00
ENDCHAR
STARTCHAR ampersand
ENCODING 38
SWIDTH 722 0
DWIDTH 24 0
BBX 21 25 3 0
BITMAP
003F00
00FF80
01FFC0
03FFC0
07E7C0
07C7C0
07C780
07CF80
03FF00
03FE00
01F800
03F000
0FF878
1FFCF8
3E7CF0
7C3FE0
783FE0
F81FC0
F80F80
F81F80
FC7FC0
FFFFC0
7FFBE0
3FF1E0
0FC000
ENDCHAR
STARTCHAR quoteright
ENCODING 39
SWIDTH 278 0
DWIDTH 9 0
BBX 6 8 6 17
BITMAP
7C
7C
7C
7C
1C
38
70
E0
ENDCHAR
STARTCHAR parenleft
ENCODING 40
SWIDTH 333 0
DWIDTH 11 0
BBX 13 31 2 -6
BITMAP
0078
00F0
01E0
03C0
03C0
0780
0F00
0F00
1E00
1E00
3C00
3C00
3C00
7800
7800
7800
7800
F800
F800
F800
F800
F800
F800
7800
7800
7800
7800
3800
3C00
3C00
1E00
ENDCHAR
STARTCHAR parenright
ENCODING 41
SWIDTH 333 0
DWIDTH 11 0
BBX 12 32 -1 -6
BITMAP
0780
03C0
01C0
01E0
00E0
00F0
00F0
00F0
00F0
00F0
00F0
00F0
00F0
00F0
00F0
00F0
00F0
01F0
01E0
01E0
03E0
03C0
07C0
0780
0F80
0F00
1E00
1E00
3C00
7800
7000
E000
ENDCHAR
STARTCHAR asterisk
ENCODING 42
SWIDTH 389 0
DWIDTH 13 0
BBX 11 11 5 13
BITMAP
0700
0700
6660
F6E0
7FE0
3F80
1F00
3F80
73C0
F1C0
6180
ENDCHAR
STARTCHAR plus
ENCODING 43
SWIDTH 584 0
DWIDTH 19 0
BBX 17 16 3 0
BITMAP
00F000
00F000
00F000
00F000
01E000
01E000
7FFF80
FFFF80
FFFF80
FFFF00
03C000
03C000
03C000
078000
078000
078000
ENDCHAR
STARTCHAR comma
ENCODING 44
SWIDTH 278 0
DWIDTH 9 0
BBX 7 11 1 -6
BITMAP
1E
1E
3E
3E
3C
0C
1C
38
70
E0
80
ENDCHAR
STARTCHAR minus
ENCODING 45
SWIDTH 584 0
DWIDTH 19 0
BBX 17 4 3 6
BITMAP
7FFF80
7FFF80
FFFF00
FFFF00
ENDCHAR
STARTCHAR period
ENCODING 46
SWIDTH 278 0
DWIDTH 9 0
BBX 6 5 2 0
BITMAP
7C
7C
FC
F8
F8
ENDCHAR
STARTCHAR slash
ENCODING 47
SWIDTH 278 0
DWIDTH 9 0
BBX 14 24 0 0
BITMAP
000C
0018
0018
0030
0030
0060
0060
00C0
00C0
0180
0180
0300
0300
0600
0600
0C00
0C00
1800
1800
3000
3000
6000
6000
C000
ENDCHAR
STARTCHAR zero
ENCODING 48
SWIDTH 556 0
DWIDTH 18 0
BBX 17 24 3 0
BITMAP
00FC00
03FF00
07FF00
0FFF80
1F9F80
3E0F80
3E0F80
3C0F80
7C0F80
7C0F80
780F80
780F80
F80F80
F01F00
F01F00
F01F00
F01E00
F03E00
F83C00
FC7C00
FFF800
7FF000
7FE000
1FC000
ENDCHAR
STARTCHAR one
ENCODING 49
SWIDTH 556 0
DWIDTH 18 0
BBX 12 24 6 0
BITMAP
00F0
01F0
03F0
0FE0
FFE0
FFE0
FFC0
07C0
07C0
07C0
07C0
0780
0F80
0F80
0F80
0F80
1F00
1F00
1F00
1F00
1E00
3E00
3E00
3E00
ENDCHAR
STARTCHAR two
ENCODING 50
SWIDTH 556 0
DWIDTH 18 0
BBX 19 24 2 0
BITMAP
007E00
01FF80
03FFC0
07FFC0
0FC7E0
0F83E0
1F03E0
1E03E0
1E07C0
0007C0
000F80
001F00
003E00
00FC00
01F800
07F000
0FC000
1F8000
3F0000
7E0000
7FFE00
FFFE00
FFFE00
FFFE00
ENDCHAR
STARTCHAR three
ENCODING 51
SWIDTH 556 0
DWIDTH 18 0
BBX 17 24 3 0
BITMAP
01FC00
07FF00
0FFF00
1FFF80
1F0F80
3E0F80
3C0F80
3C0F80
001F00
003E00
01FC00
01FC00
01FE00
007E00
003F00
001F00
F01F00
F03F00
F03E00
F87E00
FFFC00
7FF800
7FE000
1F8000
ENDCHAR
STARTCHAR four
ENCODING 52
SWIDTH 556 0
DWIDTH 18 0
BBX 18 24 2 0
BITMAP
000FC0
001FC0
003FC0
003F80
007F80
00FF80
01EF80
03CF00
079F00
079F00
0F1F00
1E1F00
3C1E00
783E00
F83E00
FFFF80
FFFF80
FFFF80
FFFF80
007C00
007C00
007800
00F800
00F800
ENDCHAR
STARTCHAR five
ENCODING 53
SWIDTH 556 0
DWIDTH 18 0
BBX 18 24 3 0
BITMAP
03FFC0
03FFC0
07FF80
07FF80
0F0000
0F0000
0E0000
1E0000
1CF800
3FFE00
3FFE00
3FFF00
7C3F00
001F00
001F00
001F00
001F00
F03E00
F03E00
F8FC00
FFF800
7FF000
7FE000
1F8000
ENDCHAR
STARTCHAR six
ENCODING 54
SWIDTH 556 0
DWIDTH 18 0
BBX 18 24 3 0
BITMAP
007C00
01FF00
03FF80
07FFC0
0F87C0
1E07C0
1E0000
3C0000
3CF800
7FFE00
7FFE00
7FFF00
FE1F00
FC1F00
F80F00
F00F00
F01F00
F01E00
F83E00
F87C00
FFFC00
7FF800
3FE000
1F8000
ENDCHAR
STARTCHAR seven
ENCODING 55
SWIDTH 556 0
DWIDTH 18 0
BBX 18 24 5 0
BITMAP
3FFFC0
7FFFC0
7FFFC0
7FFF80
000F00
001E00
003E00
007C00
00F800
01F000
01E000
03E000
07C000
0F8000
0F8000
1F0000
1E0000
3E0000
3C0000
7C0000
7C0000
780000
F80000
F80000
ENDCHAR
STARTCHAR eight
ENCODING 56
SWIDTH 556 0
DWIDTH 18 0
BBX 18 24 2 0
BITMAP
007C00
01FF00
03FF80
07FFC0
0787C0
0F03C0
0F03C0
0F03C0
0F07C0
079F80
03FF00
07FE00
1FFE00
3F1F00
7C0F80
7C0F80
F80F80
F81F00
F81F00
FC3E00
7FFC00
7FF800
3FF000
0FC000
ENDCHAR
STARTCHAR nine
ENCODING 57
SWIDTH 556 0
DWIDTH 18 0
BBX 18 24 2 0
BITMAP
007E00
01FF00
07FF80
0FFFC0
0F87C0
1F03C0
1E03C0
3E03C0
3C03C0
3C07C0
3E0FC0
3F1FC0
3FFF80
1FFF80
0FFF80
07CF00
000F00
001F00
F81E00
FC3C00
7FFC00
7FF800
3FF000
0FC000
ENDCHAR
STARTCHAR colon
ENCODING 58
SWIDTH 333 0
DWIDTH 11 0
BBX 8 17 4 0
BITMAP
1F
1F
3F
3E
3E
00
00
00
00
00
00
00
7C
7C
FC
F8
F8
ENDCHAR
STARTCHAR semicolon
ENCODING 59
SWIDTH 333 0
DWIDTH 11 0
BBX 9 23 3 -6
BITMAP
0780
0780
0F80
0F00
0F00
0000
0000
0000
0000
0000
0000
0000
3E00
3E00
7E00
7C00
7C00
0C00
1800
3800
7000
E000
8000
ENDCHAR
STARTCHAR less
ENCODING 60
SWIDTH 584 0
DWIDTH 19 0
BBX 18 16 2 0
BITMAP
000040
0003C0
001FC0
00FF80
07FF80
1FFC00
7FE000
7F0000
FF0000
FFE000
3FF800
0FFF00
03FF00
007F00
001E00
000600
ENDCHAR
STARTCHAR equal
ENCODING 61
SWIDTH 584 0
DWIDTH 19 0
BBX 19 12 2 2
BITMAP
1FFFE0
1FFFE0
3FFFC0
3FFFC0
000000
000000
000000
000000
7FFF80
7FFF80
FFFF00
FFFF00
ENDCHAR
STARTCHAR greater
ENCODING 62
SWIDTH 584 0
DWIDTH 19 0
BBX 18 16 2 0
BITMAP
180000
1E0000
3FC000
3FF000
3FFE00
07FF00
00FFC0
003FC0
003FC0
01FF00
0FFE00
7FF800
7FC000
FE0000
F00000
C00000
ENDCHAR
STARTCHAR question
ENCODING 63
SWIDTH 611 0
DWIDTH 20 0
BBX 18 25 5 0
BITMAP
03FC00
0FFF00
1FFF80
3FFF80
3F0FC0
7C07C0
7C07C0
F807C0
F80F80
001F80
003F00
007E00
00FC00
01F800
03E000
03C000
078000
078000
000000
000000
0F8000
0F8000
1F0000
1F0000
1F0000
ENDCHAR
STARTCHAR at
ENCODING 64
SWIDTH 975 0
DWIDTH 33 0
BBX 32 30 3 -5
BITMAP
0000FE00
0007FFC0
001FFFE0
007E03F8
00F800FC
01E0003C
03C0001E
0780000E
0F01F38F
1E07FF8F
3C0F3F07
381C1F07
78381E0F
70701E0E
F0701C0E
E0E03C1E
E0E0381C
E1E0783C
E1E0F078
E1F1F1F0
E0FFFFE0
F0FF3F80
F03C1E00
78000000
7C000000
3F000000
1FC0F000
0FFFF000
07FFF000
01FF8000
ENDCHAR
STARTCHAR A
ENCODING 65
SWIDTH 722 0
DWIDTH 24 0
BBX 22 25 1 0
BITMAP
0003E0
0007E0
000FE0
001FE0
001FF0
003FF0
003FF0
007DF0
007DF0
00F9F0
00F9F0
01F0F8
03F0F8
03E0F8
07E0F8
07C0F8
0FFFF8
0FFFF8
1FFFF8
1FFFFC
3E00FC
3E007C
7C007C
FC007C
F8007C
ENDCHAR
STARTCHAR B
ENCODING 66
SWIDTH 722 0
DWIDTH 24 0
BBX 23 25 3 0
BITMAP
07FFE0
07FFF8
07FFFC
0FFFFE
0F807E
0F803E
0F803E
0F803C
1F807C
1F01F8
1FFFF0
1FFFE0
1FFFF0
3FFFF0
3E01F8
3E00F8
3E00F8
3E00F8
7C00F8
7C01F0
7C07F0
7FFFE0
FFFFC0
FFFF80
FFFE00
ENDCHAR
STARTCHAR C
ENCODING 67
SWIDTH 722 0
DWIDTH 24 0
BBX 23 25 3 0
BITMAP
003FE0
00FFF8
01FFFC
07FFFC
0FF0FE
0FC03E
1F803E
3F003E
3E003E
7E0000
7C0000
7C0000
F80000
F80000
F80000
F80000
F8007C
FC00FC
7C00F8
7E03F0
7F0FF0
3FFFE0
3FFFC0
1FFF00
07F800
ENDCHAR
STARTCHAR D
ENCODING 68
SWIDTH 722 0
DWIDTH 24 0
BBX 23 25 3 0
BITMAP
07FFE0
07FFF8
07FFFC
0FFFFC
0F81FE
0F807E
0F803E
0F803E
1F803E
1F003E
1F003E
1F003E
1F003E
3F007E
3E007C
3E007C
3E00F8
3E00F8
7C01F0
7C03F0
7C0FE0
7FFFC0
FFFF80
FFFF00
FFFC00
ENDCHAR
STARTCHAR E
ENCODING 69
SWIDTH 667 0
DWIDTH 22 0
BBX 23 25 3 0
BITMAP
07FFFE
07FFFE
07FFFC
0FFFFC
0F8000
0F8000
0F8000
0F8000
1F0000
1F0000
1FFFF0
1FFFF0
1FFFE0
3FFFE0
3E0000
3E0000
3E0000
3E0000
7C0000
7C0000
7C0000
7FFFE0
FFFFE0
FFFFC0
FFFFC0
ENDCHAR
STARTCHAR F
ENCODING 70
SWIDTH 611 0
DWIDTH 20 0
BBX 22 25 2 0
BITMAP
07FFFC
07FFFC
07FFF8
0FFFF8
0F8000
0F8000
0F8000
0F8000
1F0000
1F0000
1FFFE0
1FFFE0
1FFFC0
3FFFC0
3E0000
3E0000
3E0000
3E0000
7C0000
7C0000
7C0000
7C0000
FC0000
F80000
F80000
ENDCHAR
STARTCHAR G
ENCODING 71
SWIDTH 778 0
DWIDTH 25 0
BBX 25 25 3 0
BITMAP
001FF000
007FFC00
01FFFE00
03FFFF00
07F87F00
0FC01F80
1F801F80
1F000F80
3E000000
3E000000
7E000000
7C000000
7C03FF00
7C07FF00
F807FE00
F807FE00
FC003E00
FC003E00
7C007E00
7E00FC00
7F83FC00
3FFFFC00
1FFFBC00
0FFF3800
03F80000
ENDCHAR
STARTCHAR H
ENCODING 72
SWIDTH 722 0
DWIDTH 24 0
BBX 25 25 2 0
BITMAP
07E00F80
07C00F80
07C00F80
07C01F80
07C01F00
0FC01F00
0F801F00
0F801F00
0F803F00
0F803E00
1FFFFE00
1FFFFE00
1FFFFE00
1FFFFE00
1F007C00
3E007C00
3E007C00
3E007C00
3E00F800
7E00F800
7C00F800
7C00F800
7C01F800
7C01F000
FC01F000
ENDCHAR
STARTCHAR I
ENCODING 73
SWIDTH 278 0
DWIDTH 9 0
BBX 10 25 2 0
BITMAP
07C0
07C0
07C0
0FC0
0F80
0F80
0F80
0F80
1F80
1F00
1F00
1F00
1F00
3F00
3E00
3E00
3E00
3E00
7C00
7C00
7C00
7C00
FC00
F800
F800
ENDCHAR
STARTCHAR J
ENCODING 74
SWIDTH 556 0
DWIDTH 18 0
BBX 19 25 2 0
BITMAP
0003E0
0003E0
0003E0
0003E0
0007C0
0007C0
0007C0
0007C0
0007C0
000F80
000F80
000F80
000F80
001F80
001F00
7C1F00
7C1F00
7C1F00
F83E00
F83E00
FC7E00
FFFC00
7FF800
3FF000
1FC000
ENDCHAR
STARTCHAR K
ENCODING 75
SWIDTH 722 0
DWIDTH 24 0
BBX 25 25 2 0
BITMAP
07C01F80
07C03F00
07C07E00
0FC0FC00
0F81F800
0F83F000
0F87E000
0F8FC000
1FBF8000
1F7E0000
1FFC0000
1FF80000
1FFC0000
3FFE0000
3FBE0000
3E3F0000
3E1F0000
3E1F8000
7C0F8000
7C0FC000
7C07E000
7C07E000
FC03F000
F803F000
F801F800
ENDCHAR
STARTCHAR L
ENCODING 76
SWIDTH 611 0
DWIDTH 20 0
BBX 17 25 3 0
BITMAP
07C000
07C000
07C000
0FC000
0F8000
0F8000
0F8000
0F8000
1F8000
1F0000
1F0000
1F0000
1F0000
3F0000
3E0000
3E0000
3E0000
3E0000
7C0000
7C0000
7C0000
7FFF80
FFFF80
FFFF00
FFFF00
ENDCHAR
STARTCHAR M
ENCODING 77
SWIDTH 833 0
DWIDTH 27 0
BBX 28 25 2 0
BITMAP
07F807F0
07F80FF0
07F80FF0
0FF80FF0
0FF81FE0
0FF81FE0
0FF83FE0
0FF83BE0
1F787BE0
1F7877C0
1F78F7C0
1F78F7C0
1F78E7C0
3E79EFC0
3E79CF80
3E7BCF80
3E7BCF80
3E7F8F80
7C7F9F00
7C7F1F00
7C7F1F00
7C7E1F00
FC7E1F00
F87E3E00
F87C3E00
ENDCHAR
STARTCHAR N
ENCODING 78
SWIDTH 722 0
DWIDTH 24 0
BBX 25 25 2 0
BITMAP
07E00F80
07E00F80
07E00F80
0FF01F80
0FF01F00
0FF01F00
0FF81F00
0FF81F00
1FFC3F00
1F7C3E00
1F3C3E00
1F3E3E00
1F3E3E00
3F1E7E00
3E1F7C00
3E1F7C00
3E0F7C00
3E0FFC00
7E07F800
7C07F800
7C07F800
7C03F800
FC03F800
F803F000
F801F000
ENDCHAR
STARTCHAR O
ENCODING 79
SWIDTH 778 0
DWIDTH 25 0
BBX 25 25 3 0
BITMAP
001FE000
00FFFC00
01FFFE00
03FFFE00
07F0FF00
0FC03F00
1F801F80
1F001F80
3E000F80
3E000F80
7C000F80
7C000F80
78000F80
F8001F00
F8001F00
F8003F00
F8003E00
FC007E00
FC00FC00
7E01F800
7F87F800
3FFFF000
1FFFE000
0FFF8000
03FE0000
ENDCHAR
STARTCHAR P
ENCODING 80
SWIDTH 667 0
DWIDTH 22 0
BBX 22 25 3 0
BITMAP
07FFE0
07FFF8
07FFF8
0FFFFC
0F80FC
0F807C
0F807C
0F807C
1F00F8
1F00F8
1F01F8
1F03F0
1FFFF0
3FFFE0
3FFFC0
3FFF00
3E0000
3E0000
7C0000
7C0000
7C0000
7C0000
F80000
F80000
F80000
ENDCHAR
STARTCHAR Q
ENCODING 81
SWIDTH 778 0
DWIDTH 26 0
BBX 25 26 3 -1
BITMAP
001FF000
00FFFC00
01FFFE00
03FFFE00
07F8FF00
0FC03F00
1F801F80
1F001F80
3E000F80
3E000F80
7C000F80
7C000F80
7C000F80
7C001F00
FC001F00
FC001F00
FC073E00
FC0FFE00
7C0FFC00
7E07F800
7F8FF800
3FFFF800
1FFFF800
0FFFFC00
07FC7800
00003000
ENDCHAR
STARTCHAR R
ENCODING 82
SWIDTH 722 0
DWIDTH 24 0
BBX 23 25 3 0
BITMAP
07FFF8
07FFFC
07FFFE
0FFFFE
0F807E
0F803E
0F803E
0F803E
1F007C
1F007C
1F01F8
1FFFF0
1FFFE0
3FFFE0
3FFFF0
3E03F0
3E01F0
3E01F0
7C01F0
7C03E0
7C03E0
7C03E0
F803E0
F803E0
F803E0
ENDCHAR
STARTCHAR S
ENCODING 83
SWIDTH 667 0
DWIDTH 22 0
BBX 22 25 2 0
BITMAP
003FC0
01FFF0
03FFF8
07FFFC
0FC1FC
0F807C
1F007C
1F007C
1F0000
1FC000
1FFE00
0FFFC0
07FFF0
00FFF0
000FF8
0001F8
0000F8
F800F0
F801F0
FC01F0
7E07E0
7FFFC0
3FFFC0
1FFF00
07F800
ENDCHAR
STARTCHAR T
ENCODING 84
SWIDTH 611 0
DWIDTH 20 0
BBX 20 25 5 0
BITMAP
7FFFF0
7FFFF0
FFFFE0
FFFFE0
01F000
01F000
01F000
01F000
03F000
03E000
03E000
03E000
03E000
07E000
07C000
07C000
07C000
07C000
0F8000
0F8000
0F8000
0F8000
1F8000
1F0000
1F0000
ENDCHAR
STARTCHAR U
ENCODING 85
SWIDTH 722 0
DWIDTH 24 0
BBX 22 25 5 0
BITMAP
1F007C
1F007C
1F007C
3F007C
3E00F8
3E00F8
3E00F8
3E00F8
7E01F8
7C01F0
7C01F0
7C01F0
7C01F0
F803F0
F803E0
F803E0
F803E0
F807E0
F807C0
F80FC0
FE3F80
FFFF00
7FFF00
3FFC00
1FF000
ENDCHAR
STARTCHAR V
ENCODING 86
SWIDTH 667 0
DWIDTH 22 0
BBX 20 25 6 0
BITMAP
F801F0
F801F0
F803E0
F803E0
F807C0
7807C0
7C0F80
7C0F80
7C1F00
7C1F00
7C3E00
7C3E00
7C7C00
7C7800
3CF800
3CF000
3DF000
3DE000
3FE000
3FC000
3FC000
3F8000
3F8000
1F0000
1F0000
ENDCHAR
STARTCHAR W
ENCODING 87
SWIDTH 944 0
DWIDTH 31 0
BBX 30 25 6 0
BITMAP
F80FC07C
F80FC0FC
F81FC0F8
F81FC0F8
F83FC1F0
F83FC1F0
F83FC3E0
F87BC3E0
F87BC7C0
F8F3C7C0
F8F3C780
F8F3CF80
F9E3CF00
F9E39F00
7BC39E00
7BC39E00
7B83BE00
7F83BC00
7F83FC00
7F03F800
7F03F800
7E03F000
7E03F000
7C03E000
7C03E000
ENDCHAR
STARTCHAR X
ENCODING 88
SWIDTH 667 0
DWIDTH 22 0
BBX 25 25 1 0
BITMAP
03F01F80
03F01F80
03F03F00
01F87E00
01F8FC00
01F8F800
00F9F800
00FFF000
007FE000
007FC000
007F8000
003F8000
003F0000
007F0000
00FF8000
01FF8000
01FFC000
03EFC000
07E7C000
0FC7E000
1F87E000
1F03E000
3F03F000
7E03F000
FC01F000
ENDCHAR
STARTCHAR Y
ENCODING 89
SWIDTH 667 0
DWIDTH 22 0
BBX 20 25 6 0
BITMAP
FC01F0
7C03F0
7E03E0
7E07E0
3E0FC0
3E0F80
3E1F00
3F3F00
1F3E00
1F7C00
1FFC00
0FF800
0FF000
0FF000
0FE000
07C000
07C000
0FC000
0F8000
0F8000
0F8000
0F8000
1F8000
1F0000
1F0000
ENDCHAR
STARTCHAR Z
ENCODING 90
SWIDTH 611 0
DWIDTH 20 0
BBX 23 25 1 0
BITMAP
03FFFE
03FFFE
07FFFE
07FFFE
00007E
0000FC
0001F8
0003F0
0007E0
000FC0
001F80
003F00
007E00
00FC00
01F800
03F000
07E000
0FC000
1F8000
3F0000
7E0000
7FFFE0
FFFFE0
FFFFC0
FFFFC0
ENDCHAR
STARTCHAR bracketleft
ENCODING 91
SWIDTH 333 0
DWIDTH 11 0
BBX 14 31 1 -6
BITMAP
03FC
03FC
03FC
07C0
07C0
0780
0780
0F80
0F80
0F80
0F00
0F00
1F00
1F00
1E00
1E00
1E00
3E00
3E00
3C00
3C00
7C00
7C00
7C00
7800
7800
F800
F800
FF00
FF00
FF00
ENDCHAR
STARTCHAR backslash
ENCODING 92
SWIDTH 278 0
DWIDTH 9 0
BBX 5 24 5 0
BITMAP
C0
E0
E0
E0
E0
E0
E0
60
60
60
60
70
70
70
70
70
70
30
30
30
30
38
38
38
ENDCHAR
STARTCHAR bracketright
ENCODING 93
SWIDTH 333 0
DWIDTH 11 0
BBX 14 31 -1 -6
BITMAP
03FC
03FC
03FC
007C
007C
0078
0078
00F8
00F8
00F8
00F0
00F0
01F0
01F0
01E0
01E0
01E0
03E0
03E0
03C0
03C0
07C0
07C0
07C0
0780
0780
0F80
0F80
FF80
FF00
FF00
ENDCHAR
STARTCHAR asciicircum
ENCODING 94
SWIDTH 584 0
DWIDTH 19 0
BBX 15 14 5 9
BITMAP
01F0
01F0
03F8
03F8
07F8
0F78
0F78
1E38
3C3C
3C3C
783C
783C
F01C
E01E
ENDCHAR
STARTCHAR underscore
ENCODING 95
SWIDTH 556 0
DWIDTH 18 0
BBX 18 2 0 -6
BITMAP
FFFFC0
FFFFC0
ENDCHAR
STARTCHAR quoteleft
ENCODING 96
SWIDTH 278 0
DWIDTH 9 0
BBX 6 8 5 17
BITMAP
1C
38
70
E0
F8
F8
F8
F8
ENDCHAR
STARTCHAR a
ENCODING 97
SWIDTH 556 0
DWIDTH 18 0
BBX 17 18 2 0
BITMAP
01FE00
07FF00
0FFF80
1F8F80
1E0780
1E0780
000F80
03FF80
1FFF00
3FFF00
7E1F00
781F00
F83E00
F87E00
FFFE00
FFFE00
7FBE00
3E3E00
ENDCHAR
STARTCHAR b
ENCODING 98
SWIDTH 611 0
DWIDTH 20 0
BBX 19 25 2 0
BITMAP
07C000
07C000
07C000
078000
0F8000
0F8000
0F8000
0FBF00
0F7FC0
1FFFC0
1FFFE0
1FC7E0
1F83E0
1F03E0
3E03E0
3E03E0
3E03E0
3E03C0
7E07C0
7E0F80
7F1F80
7FFF00
7FFE00
FBFC00
F9F000
ENDCHAR
STARTCHAR c
ENCODING 99
SWIDTH 556 0
DWIDTH 18 0
BBX 17 18 3 0
BITMAP
01F800
07FE00
1FFF00
1FFF00
3E1F80
7C0F80
780F80
780000
F00000
F00000
F00000
F00F00
F01F00
F83E00
FFFE00
7FFC00
7FF000
1FC000
ENDCHAR
STARTCHAR d
ENCODING 100
SWIDTH 611 0
DWIDTH 20 0
BBX 20 25 3 0
BITMAP
0000F0
0000F0
0001F0
0001E0
0001E0
0003E0
0003E0
03F3E0
0FFBC0
1FFFC0
1FFFC0
3F1FC0
7E0FC0
7C0F80
F80F80
F80F80
F80F80
F81F80
F81F00
F83F00
FC7F00
FFFF00
7FFE00
3FDE00
1F1E00
ENDCHAR
STARTCHAR e
ENCODING 101
SWIDTH 556 0
DWIDTH 18 0
BBX 17 18 3 0
BITMAP
01F800
07FE00
1FFF00
1F9F00
3E0F80
7C0780
780780
FFFF80
FFFF80
FFFF80
F00000
F80000
F80F00
7C1F00
7FFE00
3FFC00
1FF800
07E000
ENDCHAR
STARTCHAR f
ENCODING 102
SWIDTH 333 0
DWIDTH 11 0
BBX 13 25 3 0
BITMAP
01F8
03F8
07F0
07C0
0F80
0F80
0F80
3FE0
7FE0
7FC0
1F00
1F00
1F00
1E00
3E00
3E00
3E00
3E00
7C00
7C00
7C00
7C00
7800
F800
F800
ENDCHAR
STARTCHAR g
ENCODING 103
SWIDTH 611 0
DWIDTH 20 0
BBX 21 25 1 -7
BITMAP
00FC78
01FE78
07FF78
0FFFF0
0FC7F0
1F03F0
1E01F0
3E01E0
3C01E0
3C03E0
3C03E0
3C03E0
3C07C0
3E1FC0
3FFFC0
1FFFC0
1FF7C0
07C780
000F80
F00F80
F01F00
F87F00
7FFE00
7FF800
1FE000
ENDCHAR
STARTCHAR h
ENCODING 104
SWIDTH 611 0
DWIDTH 20 0
BBX 19 25 2 0
BITMAP
07C000
07C000
078000
078000
0F8000
0F8000
0F0000
0F3F80
0F7FC0
1FFFE0
1FFFE0
1FC7E0
1F03E0
1F03C0
3E07C0
3E07C0
3E07C0
3C07C0
7C0F80
7C0F80
7C0F80
7C0F80
780F00
F81F00
F81F00
ENDCHAR
STARTCHAR i
ENCODING 105
SWIDTH 278 0
DWIDTH 9 0
BBX 10 25 2 0
BITMAP
03C0
07C0
07C0
0780
0000
0000
0000
0F80
0F80
1F00
1F00
1F00
1F00
1F00
3E00
3E00
3E00
3E00
7C00
7C00
7C00
7C00
F800
F800
F800
ENDCHAR
STARTCHAR j
ENCODING 106
SWIDTH 278 0
DWIDTH 9 0
BBX 13 32 -1 -7
BITMAP
0078
00F8
00F8
00F0
0000
0000
0000
01F0
01F0
03E0
03E0
03E0
03E0
03E0
07C0
07C0
07C0
07C0
0F80
0F80
0F80
0F80
0F80
1F00
1F00
1F00
1F00
3E00
7E00
FE00
FC00
F800
ENDCHAR
STARTCHAR k
ENCODING 107
SWIDTH 556 0
DWIDTH 18 0
BBX 19 25 2 0
BITMAP
07C000
07C000
07C000
078000
0F8000
0F8000
0F8000
0F87E0
0F0FC0
1F1F80
1F3F00
1F7E00
1FFC00
1FF800
3FF000
3FF000
3FF800
3FF800
7E7C00
7C7C00
7C3E00
7C3E00
F83E00
F81F00
F81F00
ENDCHAR
STARTCHAR l
ENCODING 108
SWIDTH 278 0
DWIDTH 9 0
BBX 10 25 2 0
BITMAP
07C0
07C0
07C0
0F80
0F80
0F80
0F80
1F00
1F00
1F00
1F00
1F00
3F00
3E00
3E00
3E00
3E00
3E00
7C00
7C00
7C00
7C00
F800
F800
F800
ENDCHAR
STARTCHAR m
ENCODING 109
SWIDTH 889 0
DWIDTH 29 0
BBX 28 18 2 0
BITMAP
0F1F0FC0
0F7FBFE0
1FFFFFE0
1FFFFFF0
1F8FE3F0
1F07C1F0
1E0781E0
3E0F83E0
3E0F83E0
3E0F83E0
3C0F03E0
7C0F03C0
7C1F07C0
7C1F07C0
7C1F07C0
781E0780
F83E0F80
F83E0F80
ENDCHAR
STARTCHAR n
ENCODING 110
SWIDTH 611 0
DWIDTH 20 0
BBX 19 18 2 0
BITMAP
0F1F00
0F7FC0
1FFFC0
1FFFC0
1F87E0
1F03E0
1E03E0
3E07E0
3E07C0
3E07C0
3C07C0
7C0780
7C0F80
7C0F80
7C0F80
780F00
F81F00
F81F00
ENDCHAR
STARTCHAR o
ENCODING 111
SWIDTH 611 0
DWIDTH 20 0
BBX 18 18 3 0
BITMAP
01FC00
07FF00
0FFF80
1FFFC0
3F0FC0
7E07C0
7C07C0
7C07C0
F807C0
F807C0
F80F80
F80F80
F81F80
FC3F00
7FFE00
7FFC00
3FF800
0FE000
ENDCHAR
STARTCHAR p
ENCODING 112
SWIDTH 611 0
DWIDTH 20 0
BBX 20 25 1 -7
BITMAP
078F80
07BFC0
0FFFE0
0FFFE0
0FE3F0
0FC1F0
0F81F0
1F01F0
1F01F0
1F01F0
1F01F0
3F03E0
3F03E0
3F8FC0
3FFFC0
3FFF80
7DFE00
7CFC00
7C0000
780000
780000
F80000
F80000
F80000
F00000
ENDCHAR
STARTCHAR q
ENCODING 113
SWIDTH 611 0
DWIDTH 20 0
BBX 18 25 3 -7
BITMAP
01F3C0
07FBC0
0FFFC0
1FFFC0
3F1FC0
7E0FC0
7C0F80
7C0F80
F80F80
F80F80
F01F80
F01F00
F03F00
F87F00
FFFF00
7FFE00
7FBE00
1E3E00
003E00
003E00
003C00
007C00
007C00
007C00
007C00
ENDCHAR
STARTCHAR r
ENCODING 114
SWIDTH 389 0
DWIDTH 13 0
BBX 14 18 2 0
BITMAP
0F0C
0F3C
1F7C
1FFC
1FF8
1F80
1F00
3E00
3E00
3E00
3E00
7C00
7C00
7C00
7C00
7800
F800
F800
ENDCHAR
STARTCHAR s
ENCODING 115
SWIDTH 556 0
DWIDTH 18 0
BBX 17 18 2 0
BITMAP
01FC00
07FF00
0FFF80
1F1F80
1E0780
3E0780
3F8000
1FF000
1FFC00
07FE00
01FF00
003F00
F81F00
F81F00
FE3E00
7FFE00
7FFC00
1FF000
ENDCHAR
STARTCHAR t
ENCODING 116
SWIDTH 333 0
DWIDTH 11 0
BBX 10 22 4 0
BITMAP
1F00
1F00
1F00
1F00
7FC0
FFC0
FF80
3E00
3E00
3E00
7C00
7C00
7C00
7C00
7C00
F800
F800
F800
FE00
FE00
FE00
7C00
ENDCHAR
STARTCHAR u
ENCODING 117
SWIDTH 611 0
DWIDTH 20 0
BBX 19 18 3 0
BITMAP
1F03E0
1F03E0
1E03E0
3E07C0
3E07C0
3C07C0
3C0780
7C0F80
7C0F80
7C0F80
780F80
F81F00
F81F00
FC3F00
FFFF00
FFFE00
7FDE00
1F1E00
ENDCHAR
STARTCHAR v
ENCODING 118
SWIDTH 556 0
DWIDTH 18 0
BBX 17 18 4 0
BITMAP
F80F80
F81F00
F81F00
F83E00
F83E00
F87C00
F87800
78F800
78F000
79F000
79E000
7BE000
7FC000
7FC000
3F8000
3F0000
3F0000
3E0000
ENDCHAR
STARTCHAR w
ENCODING 119
SWIDTH 778 0
DWIDTH 25 0
BBX 25 18 3 0
BITMAP
F83E0F80
F83E0F80
F87E1F00
F87E1F00
F8FE3E00
F8FE3E00
F9EE3C00
F9EE7C00
79CE7800
7BCEF800
7B8EF000
7F8FF000
7F8FE000
7F0FE000
7F0FC000
7E0FC000
7E0F8000
7C0F8000
ENDCHAR
STARTCHAR x
ENCODING 120
SWIDTH 556 0
DWIDTH 18 0
BBX 20 18 1 0
BITMAP
0F83F0
0FC3E0
07C7C0
07CFC0
07FF80
03FF00
03FE00
01FC00
01F800
01F800
03FC00
07FC00
0FFC00
1FBE00
1F3E00
3E3F00
7E1F00
FC1F00
ENDCHAR
STARTCHAR y
ENCODING 121
SWIDTH 556 0
DWIDTH 18 0
BBX 21 25 1 -7
BITMAP
1F00F8
1F01F0
1F01E0
0F83E0
0F83C0
0F87C0
0F8780
0F8F80
0F8F00
0F9E00
079E00
07BC00
07FC00
07F800
07F800
07F000
07E000
03E000
07C000
07C000
0F8000
7F8000
7F0000
FE0000
F80000
ENDCHAR
STARTCHAR z
ENCODING 122
SWIDTH 500 0
DWIDTH 16 0
BBX 18 18 1 0
BITMAP
0FFFC0
0FFFC0
1FFFC0
1FFF80
001F80
003F00
007E00
00FC00
03F800
07E000
0FC000
1F8000
3F0000
7E0000
FFFE00
FFFE00
FFFC00
FFFC00
ENDCHAR
STARTCHAR braceleft
ENCODING 123
SWIDTH 389 0
DWIDTH 13 0
BBX 13 32 3 -7
BITMAP
00F8
01F8
03F8
03C0
0780
0780
0780
0780
0780
0F00
0F00
0F00
0F00
1E00
3E00
FC00
F000
FC00
3C00
3C00
3C00
3C00
3C00
7800
7800
7800
7800
F800
F800
FE00
7E00
3C00
ENDCHAR
STARTCHAR bar
ENCODING 124
SWIDTH 280 0
DWIDTH 9 0
BBX 9 31 2 -7
BITMAP
0380
0380
0300
0700
0700
0700
0700
0600
0E00
0E00
0E00
0E00
0C00
1C00
1C00
1C00
1C00
3800
3800
3800
3800
3000
7000
7000
7000
7000
6000
E000
E000
E000
E000
ENDCHAR
STARTCHAR braceright
ENCODING 125
SWIDTH 389 0
DWIDTH 13 0
BBX 13 32 1 -7
BITMAP
03E0
03F0
03F0
00F0
00F0
00F0
00F0
00F0
00F0
01E0
01E0
01E0
01E0
01E0
01E0
01F8
0078
03F0
03C0
0780
0780
0780
0780
0F00
0F00
0F00
0F00
1E00
1E00
FE00
FC00
F800
ENDCHAR
STARTCHAR asciitilde
ENCODING 126
SWIDTH 584 0
DWIDTH 19 0
BBX 16 6 3 5
BITMAP
0E00
3F07
7FC7
63FE
E0FC
0078
ENDCHAR
STARTCHAR Aogonek
ENCODING 161
SWIDTH 722 0
DWIDTH 24 0
BBX 23 32 1 -7
BITMAP
0003E0
0007E0
000FE0
001FE0
001FF0
003FF0
003FF0
007DF0
007DF0
00F9F0
00F9F0
01F0F8
03F0F8
03E0F8
07E0F8
07C0F8
0FFFF8
0FFFF8
1FFFF8
1FFFFC
3E00FC
3E007C
7C007C
FC007C
F8007C
000070
0000E0
0000E0
0001E0
0001FE
0000FC
000078
ENDCHAR
STARTCHAR breve
ENCODING 162
SWIDTH 395 0
DWIDTH 13 0
BBX 9 5 1 20
BITMAP
8080
C180
FF00
7E00
3C00
ENDCHAR
STARTCHAR Lslash
ENCODING 163
SWIDTH 611 0
DWIDTH 20 0
BBX 19 25 2 0
BITMAP
03E000
03E000
03E000
07E000
07C000
07C000
07C000
07C800
0FF800
0FF800
0FE000
0F8000
3F8000
7F8000
FF0000
DF0000
1F0000
1F0000
3E0000
3E0000
3E0000
3FFFE0
7FFFE0
7FFFC0
7FFFC0
ENDCHAR
STARTCHAR currency
ENCODING 164
SWIDTH 556 0
DWIDTH 18 0
BBX 18 17 3 3
BITMAP
080080
1C01C0
3EFBC0
1FFF80
1FFF00
0F1E00
1E0F00
1C0F00
3C0F00
3C0E00
3C1E00
1E3C00
3FFC00
7FFE00
F7DF00
600E00
400400
ENDCHAR
STARTCHAR Lcaron
ENCODING 165
SWIDTH 611 0
DWIDTH 20 0
BBX 17 25 3 0
BITMAP
07C780
07C780
07C780
0FC780
0F8180
0F8100
0F8300
0F8600
1F8000
1F0000
1F0000
1F0000
1F0000
3F0000
3E0000
3E0000
3E0000
3E0000
7C0000
7C0000
7C0000
7FFF80
FFFF80
FFFF00
FFFF00
ENDCHAR
STARTCHAR Sacute
ENCODING 166
SWIDTH 667 0
DWIDTH 22 0
BBX 22 31 2 0
BITMAP
0000F0
0001E0
0001C0
000380
000700
000000
003FC0
01FFF0
03FFF8
07FFFC
0FC1FC
0F807C
1F007C
1F007C
1F0000
1FC000
1FFE00
0FFFC0
07FFF0
00FFF0
000FF8
0001F8
0000F8
F800F0
F801F0
FC01F0
7E07E0
7FFFC0
3FFFC0
1FFF00
07F800
ENDCHAR
STARTCHAR section
ENCODING 167
SWIDTH 556 0
DWIDTH 18 0
BBX 18 32 2 -7
BITMAP
00FF00
01FF80
03FFC0
07FFC0
07C7C0
0F87C0
0F8000
0FE000
0FF000
07FC00
0FFE00
1FFF00
3CFF00
3C3F80
781F80
7C0F80
7E0780
7F0F00
3F9F00
3FFE00
1FF800
07FC00
03FC00
00FC00
007C00
F07C00
F07C00
F8F800
FFF800
FFF000
7FE000
1F8000
ENDCHAR
STARTCHAR dieresis
ENCODING 168
SWIDTH 333 0
DWIDTH 11 0
BBX 11 4 5 21
BITMAP
F1E0
F1E0
F1E0
F1E0
ENDCHAR
STARTCHAR Scaron
ENCODING 169
SWIDTH 667 0
DWIDTH 22 0
BBX 22 31 2 0
BITMAP
003870
001CE0
001DC0
000F80
000F80
000000
003FC0
01FFF0
03FFF8
07FFFC
0FC1FC
0F807C
1F007C
1F007C
1F0000
1FC000
1FFE00
0FFFC0
07FFF0
00FFF0
000FF8
0001F8
0000F8
F800F0
F801F0
FC01F0
7E07E0
7FFFC0
3FFFC0
1FFF00
07F800
ENDCHAR
STARTCHAR Scedilla
ENCODING 170
SWIDTH 667 0
DWIDTH 22 0
BBX 22 32 2 -7
BITMAP
003FC0
01FFF0
03FFF8
07FFFC
0FC1FC
0F807C
1F007C
1F007C
1F0000
1FC000
1FFE00
0FFFC0
07FFF0
00FFF0
000FF8
0001F8
0000F8
F800F0
F801F0
FC01F0
7E07E0
7FFFC0
3FFFC0
1FFF00
07F800
00C000
00C000
00F000
003800
003800
07F000
07E000
ENDCHAR
STARTCHAR Tcaron
ENCODING 171
SWIDTH 611 0
DWIDTH 20 0
BBX 20 31 5 0
BITMAP
038700
01CE00
01DC00
00F800
00F800
000000
7FFFF0
7FFFF0
FFFFE0
FFFFE0
01F000
01F000
01F000
01F000
03F000
03E000
03E000
03E000
03E000
07E000
07C000
07C000
07C000
07C000
0F8000
0F8000
0F8000
0F8000
1F8000
1F0000
1F0000
ENDCHAR
STARTCHAR Zacute
ENCODING 172
SWIDTH 611 0
DWIDTH 20 0
BBX 23 31 1 0
BITMAP
0000F0
0001E0
0001C0
000380
000700
000000
03FFFE
03FFFE
07FFFE
07FFFE
00007E
0000FC
0001F8
0003F0
0007E0
000FC0
001F80
003F00
007E00
00FC00
01F800
03F000
07E000
0FC000
1F8000
3F0000
7E0000
7FFFE0
FFFFE0
FFFFC0
FFFFC0
ENDCHAR
STARTCHAR hyphen
ENCODING 173
SWIDTH 333 0
DWIDTH 11 0
BBX 9 5 3 7
BITMAP
FF80
FF80
FF80
FF80
FF80
ENDCHAR
STARTCHAR Zcaron
ENCODING 174
SWIDTH 611 0
DWIDTH 20 0
BBX 23 31 1 0
BITMAP
003870
001CE0
001DC0
000F80
000F80
000000
03FFFE
03FFFE
07FFFE
07FFFE
00007E
0000FC
0001F8
0003F0
0007E0
000FC0
001F80
003F00
007E00
00FC00
01F800
03F000
07E000
0FC000
1F8000
3F0000
7E0000
7FFFE0
FFFFE0
FFFFC0
FFFFC0
ENDCHAR
STARTCHAR Zdotaccent
ENCODING 175
SWIDTH 611 0
DWIDTH 20 0
BBX 23 30 1 0
BITMAP
000780
000780
000780
000780
000000
03FFFE
03FFFE
07FFFE
07FFFE
00007E
0000FC
0001F8
0003F0
0007E0
000FC0
001F80
003F00
007E00
00FC00
01F800
03F000
07E000
0FC000
1F8000
3F0000
7E0000
7FFFE0
FFFFE0
FFFFC0
FFFFC0
ENDCHAR
STARTCHAR degree
ENCODING 176
SWIDTH 400 0
DWIDTH 13 0
BBX 10 10 6 14
BITMAP
0F00
3F80
71C0
60C0
C0C0
C0C0
C1C0
E380
7F00
3C00
ENDCHAR
STARTCHAR aogonek
ENCODING 177
SWIDTH 556 0
DWIDTH 18 0
BBX 18 25 2 -7
BITMAP
01FE00
07FF00
0FFF80
1F8F80
1E0780
1E0780
000F80
03FF80
1FFF00
3FFF00
7E1F00
781F00
F83E00
F87E00
FFFE00
FFFE00
7FBE00
3E3E00
000E00
001C00
001C00
003C00
003FC0
001F80
000F00
ENDCHAR
STARTCHAR ogonek
ENCODING 178
SWIDTH 426 0
DWIDTH 14 0
BBX 8 8 4 -7
BITMAP
38
70
70
70
F0
FF
7E
3C
ENDCHAR
STARTCHAR lslash
ENCODING 179
SWIDTH 278 0
DWIDTH 9 0
BBX 10 25 2 0
BITMAP
0780
0780
0780
0F80
0F80
0F00
0F40
1FC0
1FC0
1F80
1E00
1E00
3E00
7E00
FC00
BC00
3C00
7C00
7C00
7800
7800
F800
F800
F800
F000
ENDCHAR
STARTCHAR acute
ENCODING 180
SWIDTH 333 0
DWIDTH 11 0
BBX 7 5 7 21
BITMAP
1E
3C
38
70
E0
ENDCHAR
STARTCHAR lcaron
ENCODING 181
SWIDTH 401 0
DWIDTH 13 0
BBX 16 25 2 0
BITMAP
07CF
07CF
07CF
0F8F
0F83
0F82
0F86
1F0C
1F00
1F00
1F00
1F00
3F00
3E00
3E00
3E00
3E00
3E00
7C00
7C00
7C00
7C00
F800
F800
F800
ENDCHAR
STARTCHAR sacute
ENCODING 182
SWIDTH 556 0
DWIDTH 18 0
BBX 17 25 2 0
BITMAP
000F00
001E00
001C00
003800
007000
000000
000000
01FC00
07FF00
0FFF80
1F1F80
1E0780
3E0780
3F8000
1FF000
1FFC00
07FE00
01FF00
003F00
F81F00
F81F00
FE3E00
7FFE00
7FFC00
1FF000
ENDCHAR
STARTCHAR caron
ENCODING 183
SWIDTH 426 0
DWIDTH 14 0
BBX 10 5 1 20
BITMAP
E1C0
7380
7700
3E00
3E00
ENDCHAR
STARTCHAR cedilla
ENCODING 184
SWIDTH 426 0
DWIDTH 14 0
BBX 8 7 4 -7
BITMAP
18
18
1E
07
07
FE
FC
ENDCHAR
STARTCHAR scaron
ENCODING 185
SWIDTH 556 0
DWIDTH 18 0
BBX 17 25 2 0
BITMAP
038700
01CE00
01DC00
00F800
00F800
000000
000000
01FC00
07FF00
0FFF80
1F1F80
1E0780
3E0780
3F8000
1FF000
1FFC00
07FE00
01FF00
003F00
F81F00
F81F00
FE3E00
7FFE00
7FFC00
1FF000
ENDCHAR
STARTCHAR scedilla
ENCODING 186
SWIDTH 556 0
DWIDTH 18 0
BBX 17 25 2 -7
BITMAP
01FC00
07FF00
0FFF80
1F1F80
1E0780
3E0780
3F8000
1FF000
1FFC00
07FE00
01FF00
003F00
F81F00
F81F00
FE3E00
7FFE00
7FFC00
1FF000
018000
018000
01E000
007000
007000
0FE000
0FC000
ENDCHAR
STARTCHAR tcaron
ENCODING 187
SWIDTH 363 0
DWIDTH 12 0
BBX 14 27 4 0
BITMAP
003C
003C
003C
003C
000C
1F08
1F18
1F30
1F00
7FC0
FFC0
FF80
3E00
3E00
3E00
7C00
7C00
7C00
7C00
7C00
F800
F800
F800
FE00
FE00
FE00
7C00
ENDCHAR
STARTCHAR zacute
ENCODING 188
SWIDTH 500 0
DWIDTH 16 0
BBX 18 25 1 0
BITMAP
000780
000F00
000E00
001C00
003800
000000
000000
0FFFC0
0FFFC0
1FFFC0
1FFF80
001F80
003F00
007E00
00FC00
03F800
07E000
0FC000
1F8000
3F0000
7E0000
FFFE00
FFFE00
FFFC00
FFFC00
ENDCHAR
STARTCHAR hungarumlaut
ENCODING 189
SWIDTH 487 0
DWIDTH 16 0
BBX 12 5 1 20
BITMAP
3CF0
79E0
71C0
E380
C300
ENDCHAR
STARTCHAR zcaron
ENCODING 190
SWIDTH 500 0
DWIDTH 16 0
BBX 18 25 1 0
BITMAP
01C380
00E700
00EE00
007C00
007C00
000000
000000
0FFFC0
0FFFC0
1FFFC0
1FFF80
001F80
003F00
007E00
00FC00
03F800
07E000
0FC000
1F8000
3F0000
7E0000
FFFE00
FFFE00
FFFC00
FFFC00
ENDCHAR
STARTCHAR zdotaccent
ENCODING 191
SWIDTH 500 0
DWIDTH 16 0
BBX 18 24 1 0
BITMAP
007800
007800
007800
007800
000000
000000
0FFFC0
0FFFC0
1FFFC0
1FFF80
001F80
003F00
007E00
00FC00
03F800
07E000
0FC000
1F8000
3F0000
7E0000
FFFE00
FFFE00
FFFC00
FFFC00
ENDCHAR
STARTCHAR Racute
ENCODING 192
SWIDTH 722 0
DWIDTH 24 0
BBX 23 31 3 0
BITMAP
0001E0
0003C0
000380
000700
000E00
000000
07FFF8
07FFFC
07FFFE
0FFFFE
0F807E
0F803E
0F803E
0F803E
1F007C
1F007C
1F01F8
1FFFF0
1FFFE0
3FFFE0
3FFFF0
3E03F0
3E01F0
3E01F0
7C01F0
7C03E0
7C03E0
7C03E0
F803E0
F803E0
F803E0
ENDCHAR
STARTCHAR Aacute
ENCODING 193
SWIDTH 722 0
DWIDTH 24 0
BBX 22 31 1 0
BITMAP
000078
0000F0
0000E0
0001C0
000380
000000
0003E0
0007E0
000FE0
000FE0
001FF0
003FF0
003FF0
007DF0
007DF0
00F9F0
00F9F0
01F0F8
03F0F8
03E0F8
07E0F8
07C0F8
0FFFF8
0FFFF8
1FFFF8
1FFFFC
3E00FC
3E007C
7C007C
FC007C
F8007C
ENDCHAR
STARTCHAR Acircumflex
ENCODING 194
SWIDTH 722 0
DWIDTH 24 0
BBX 22 31 1 0
BITMAP
0001E0
0003F0
000770
000E38
001C1C
000000
0003E0
0007E0
000FE0
000FE0
001FF0
003FF0
003FF0
007DF0
007DF0
00F9F0
00F9F0
01F0F8
03F0F8
03E0F8
07E0F8
07C0F8
0FFFF8
0FFFF8
1FFFF8
1FFFFC
3E00FC
3E007C
7C007C
FC007C
F8007C
ENDCHAR
STARTCHAR Abreve
ENCODING 195
SWIDTH 722 0
DWIDTH 24 0
BBX 22 31 1 0
BITMAP
000404
00060C
0007F8
0003F0
0001E0
000000
0003E0
0007E0
000FE0
001FE0
001FF0
003FF0
003FF0
007DF0
007DF0
00F9F0
00F9F0
01F0F8
03F0F8
03E0F8
07E0F8
07C0F8
0FFFF8
0FFFF8
1FFFF8
1FFFFC
3E00FC
3E007C
7C007C
FC007C
F8007C
ENDCHAR
STARTCHAR Adieresis
ENCODING 196
SWIDTH 722 0
DWIDTH 24 0
BBX 22 31 1 0
BITMAP
003C3C
003C3C
003C3C
003C3C
000000
000000
0003E0
0007E0
000FE0
000FE0
001FF0
003FF0
003FF0
007DF0
007DF0
00F9F0
00F9F0
01F0F8
03F0F8
03E0F8
07E0F8
07C0F8
0FFFF8
0FFFF8
1FFFF8
1FFFFC
3E00FC
3E007C
7C007C
FC007C
F8007C
ENDCHAR
STARTCHAR Lacute
ENCODING 197
SWIDTH 611 0
DWIDTH 20 0
BBX 17 31 3 0
BITMAP
007800
00F000
00E000
01C000
038000
000000
07C000
07C000
07C000
0FC000
0F8000
0F8000
0F8000
0F8000
1F8000
1F0000
1F0000
1F0000
1F0000
3F0000
3E0000
3E0000
3E0000
3E0000
7C0000
7C0000
7C0000
7FFF80
FFFF80
FFFF00
FFFF00
ENDCHAR
STARTCHAR Cacute
ENCODING 198
SWIDTH 722 0
DWIDTH 24 0
BBX 23 31 3 0
BITMAP
0000F0
0001E0
0001C0
000380
000700
000000
003FE0
00FFF8
01FFFC
07FFFC
0FF0FE
0FC03E
1F803E
3F003E
3E003E
7E0000
7C0000
7C0000
F80000
F80000
F80000
F80000
F8007C
FC00FC
7C00F8
7E03F0
7F0FF0
3FFFE0
3FFFC0
1FFF00
07F800
ENDCHAR
STARTCHAR Ccedilla
ENCODING 199
SWIDTH 722 0
DWIDTH 23 0
BBX 23 32 2 -7
BITMAP
003FE0
00FFF8
01FFFC
07FFFC
0FF0FE
0FC07E
1F803E
3F003E
3E003E
3E0000
7C0000
7C0000
7C0000
FC0000
F80000
F80000
F8007C
FC00FC
7C00F8
7E03F0
7F0FF0
3FFFE0
3FFFC0
1FFF00
07F800
00C000
00C000
00F000
003800
003800
07F000
07E000
ENDCHAR
STARTCHAR Ccaron
ENCODING 200
SWIDTH 722 0
DWIDTH 24 0
BBX 23 31 3 0
BITMAP
003870
001CE0
001DC0
000F80
000F80
000000
003FE0
00FFF8
01FFFC
07FFFC
0FF0FE
0FC03E
1F803E
3F003E
3E003E
7E0000
7C0000
7C0000
F80000
F80000
F80000
F80000
F8007C
FC00FC
7C00F8
7E03F0
7F0FF0
3FFFE0
3FFFC0
1FFF00
07F800
ENDCHAR
STARTCHAR Eacute
ENCODING 201
SWIDTH 667 0
DWIDTH 22 0
BBX 23 31 3 0
BITMAP
0001E0
0003C0
000380
000700
000E00
000000
07FFFE
07FFFE
07FFFC
0FFFFC
0F8000
0F8000
0F8000
0F8000
1F0000
1F0000
1FFFF0
1FFFF0
1FFFE0
3FFFE0
3E0000
3E0000
3E0000
3E0000
7C0000
7C0000
7C0000
7FFFE0
FFFFE0
FFFFC0
FFFFC0
ENDCHAR
STARTCHAR Eogonek
ENCODING 202
SWIDTH 667 0
DWIDTH 22 0
BBX 23 32 3 -7
BITMAP
07FFFE
07FFFE
07FFFC
0FFFFC
0F8000
0F8000
0F8000
0F8000
1F0000
1F0000
1FFFF0
1FFFF0
1FFFE0
3FFFE0
3E0000
3E0000
3E0000
3E0000
7C0000
7C0000
7C0000
7FFFE0
FFFFE0
FFFFC0
FFFFC0
000380
000700
000700
000F00
000FF0
0007E0
0003C0
ENDCHAR
STARTCHAR Edieresis
ENCODING 203
SWIDTH 667 0
DWIDTH 22 0
BBX 23 31 3 0
BITMAP
0078F0
0078F0
0078F0
0078F0
000000
000000
07FFFE
07FFFE
07FFFC
0FFFFC
0F8000
0F8000
0F8000
0F8000
1F0000
1F0000
1FFFF0
1FFFF0
1FFFE0
3FFFE0
3E0000
3E0000
3E0000
3E0000
7C0000
7C0000
7C0000
7FFFE0
FFFFE0
FFFFC0
FFFFC0
ENDCHAR
STARTCHAR Ecaron
ENCODING 204
SWIDTH 667 0
DWIDTH 22 0
BBX 23 31 3 0
BITMAP
003870
001CE0
001DC0
000F80
000F80
000000
07FFFE
07FFFE
07FFFC
0FFFFC
0F8000
0F8000
0F8000
0F8000
1F0000
1F0000
1FFFF0
1FFFF0
1FFFE0
3FFFE0
3E0000
3E0000
3E0000
3E0000
7C0000
7C0000
7C0000
7FFFE0
FFFFE0
FFFFC0
FFFFC0
ENDCHAR
STARTCHAR Iacute
ENCODING 205
SWIDTH 278 0
DWIDTH 9 0
BBX 12 31 2 0
BITMAP
00F0
01E0
01C0
0380
0700
0000
07C0
07C0
07C0
0FC0
0F80
0F80
0F80
0F80
1F80
1F00
1F00
1F00
1F00
3F00
3E00
3E00
3E00
3E00
7C00
7C00
7C00
7C00
FC00
F800
F800
ENDCHAR
STARTCHAR Icircumflex
ENCODING 206
SWIDTH 278 0
DWIDTH 9 0
BBX 14 31 2 0
BITMAP
01E0
03F0
0770
0E38
1C1C
0000
07C0
07C0
07C0
0FC0
0F80
0F80
0F80
0F80
1F80
1F00
1F00
1F00
1F00
3F00
3E00
3E00
3E00
3E00
7C00
7C00
7C00
7C00
FC00
F800
F800
ENDCHAR
STARTCHAR Dcaron
ENCODING 207
SWIDTH 722 0
DWIDTH 24 0
BBX 23 31 3 0
BITMAP
0070E0
0039C0
003B80
001F00
001F00
000000
07FFE0
07FFF8
07FFFC
0FFFFC
0F81FE
0F807E
0F803E
0F803E
1F803E
1F003E
1F003E
1F003E
1F003E
3F007E
3E007C
3E007C
3E00F8
3E00F8
7C01F0
7C03F0
7C0FE0
7FFFC0
FFFF80
FFFF00
FFFC00
ENDCHAR
STARTCHAR Eth
ENCODING 208
SWIDTH 722 0
DWIDTH 23 0
BBX 24 25 2 0
BITMAP
03FFF0
03FFFC
03FFFE
07FFFE
07C1FF
07C03F
07C03F
07C01F
0FC01F
0F801F
0F801F
7FF81F
FFF81F
FFF03E
1F003E
1F003E
1F007C
1F007C
3E00F8
3E01F8
3E07F0
3FFFE0
7FFFC0
7FFF80
7FFE00
ENDCHAR
STARTCHAR Nacute
ENCODING 209
SWIDTH 722 0
DWIDTH 24 0
BBX 25 31 2 0
BITMAP
00007800
0000F000
0000E000
0001C000
00038000
00000000
07E00F80
07E00F80
07E00F80
0FF01F80
0FF01F00
0FF01F00
0FF81F00
0FF81F00
1FFC3F00
1F7C3E00
1F3C3E00
1F3E3E00
1F3E3E00
3F1E7E00
3E1F7C00
3E1F7C00
3E0F7C00
3E0FFC00
7E07F800
7C07F800
7C07F800
7C03F800
FC03F800
F803F000
F801F000
ENDCHAR
STARTCHAR Ncaron
ENCODING 210
SWIDTH 722 0
DWIDTH 24 0
BBX 25 31 2 0
BITMAP
000E1C00
00073800
00077000
0003E000
0003E000
00000000
07E00F80
07E00F80
07E00F80
0FF01F80
0FF01F00
0FF01F00
0FF81F00
0FF81F00
1FFC3F00
1F7C3E00
1F3C3E00
1F3E3E00
1F3E3E00
3F1E7E00
3E1F7C00
3E1F7C00
3E0F7C00
3E0FFC00
7E07F800
7C07F800
7C07F800
7C03F800
FC03F800
F803F000
F801F000
ENDCHAR
STARTCHAR Oacute
ENCODING 211
SWIDTH 778 0
DWIDTH 25 0
BBX 24 31 4 0
BITMAP
000078
0000F0
0000E0
0001C0
000380
000000
001F80
00FFF0
03FFF8
07FFFC
0FE1FE
1F807E
3F003F
3E003F
7E001F
7C001F
7C001F
FC001F
F8001F
F8001E
F8003E
F8003E
F8007E
F8007C
FC00FC
FC01F8
7F07F0
7FFFE0
3FFFC0
1FFF00
07FC00
ENDCHAR
STARTCHAR Ocircumflex
ENCODING 212
SWIDTH 778 0
DWIDTH 25 0
BBX 24 31 4 0
BITMAP
0003C0
0007E0
000EE0
001C70
003838
000000
001F80
00FFF0
03FFF8
07FFFC
0FE1FE
1F807E
3F003E
3E003F
7E001F
7C001F
7C001F
FC001F
F8001F
F8003F
F8003E
F8003E
F8007E
F8007C
FC00FC
FC01F8
7F07F0
7FFFE0
3FFFC0
1FFF00
07FC00
ENDCHAR
STARTCHAR Ohungarumlaut
ENCODING 213
SWIDTH 778 0
DWIDTH 25 0
BBX 25 31 3 0
BITMAP
00079E00
000F3C00
000E3800
001C7000
00186000
00000000
001FE000
00FFFC00
01FFFE00
03FFFE00
07F0FF00
0FC03F00
1F801F80
1F001F80
3E000F80
3E000F80
7C000F80
7C000F80
78000F80
F8001F00
F8001F00
F8003F00
F8003E00
FC007E00
FC00FC00
7E01F800
7F87F800
3FFFF000
1FFFE000
0FFF8000
03FE0000
ENDCHAR
STARTCHAR Odieresis
ENCODING 214
SWIDTH 778 0
DWIDTH 25 0
BBX 24 31 4 0
BITMAP
003C78
003C78
003C78
003C78
000000
000000
001F80
00FFF0
03FFF8
07FFFC
0FE1FE
1F807E
3F003E
3E003F
7E001F
7C001F
7C001F
FC001F
F8001F
F8001E
F8003E
F8003E
F8007E
F8007C
FC00FC
7C01F8
7F07F0
3FFFE0
3FFFC0
0FFF00
03FC00
ENDCHAR
STARTCHAR multiply
ENCODING 215
SWIDTH 584 0
DWIDTH 19 0
BBX 18 15 3 1
BITMAP
0C0100
1E0780
3F0FC0
3F1F80
1FBF00
0FFC00
07F800
03F000
07F000
0FF800
3FFC00
7E7E00
FC3E00
F83E00
701C00
ENDCHAR
STARTCHAR Rcaron
ENCODING 216
SWIDTH 722 0
DWIDTH 24 0
BBX 23 31 3 0
BITMAP
003870
001CE0
001DC0
000F80
000F80
000000
07FFF8
07FFFC
07FFFE
0FFFFE
0F807E
0F803E
0F803E
0F803E
1F007C
1F007C
1F01F8
1FFFF0
1FFFE0
3FFFE0
3FFFF0
3E03F0
3E01F0
3E01F0
7C01F0
7C03E0
7C03E0
7C03E0
F803E0
F803E0
F803E0
ENDCHAR
STARTCHAR Uring
ENCODING 217
SWIDTH 722 0
DWIDTH 24 0
BBX 22 31 5 0
BITMAP
000E00
001B00
001300
003300
003600
001C00
1F007C
1F007C
1F007C
3F007C
3E00F8
3E00F8
3E00F8
3E00F8
7E01F8
7C01F0
7C01F0
7C01F0
7C01F0
F803F0
F803E0
F803E0
F803E0
F807E0
F807C0
F80FC0
FE3F80
FFFF00
7FFF00
3FFC00
1FF000
ENDCHAR
STARTCHAR Uacute
ENCODING 218
SWIDTH 722 0
DWIDTH 24 0
BBX 22 31 5 0
BITMAP
000780
000F00
000E00
001C00
003800
000000
1F007C
1F007C
1F007C
3F007C
3E00F8
3E00F8
3E00F8
3E00F8
7E01F8
7C01F0
7C01F0
7C01F0
7C01F0
F803F0
F803E0
F803E0
F803E0
F807E0
F807C0
F80FC0
FE3F80
FFFF00
7FFF00
3FFC00
1FF000
ENDCHAR
STARTCHAR Uhungarumlaut
ENCODING 219
SWIDTH 722 0
DWIDTH 24 0
BBX 22 31 5 0
BITMAP
001E78
003CF0
0038E0
0071C0
006180
000000
1F007C
1F007C
1F007C
3F007C
3E00F8
3E00F8
3E00F8
3E00F8
7E01F8
7C01F0
7C01F0
7C01F0
7C01F0
F803F0
F803E0
F803E0
F803E0
F807E0
F807C0
F80FC0
FE3F80
FFFF00
7FFF00
3FFC00
1FF000
ENDCHAR
STARTCHAR Udieresis
ENCODING 220
SWIDTH 722 0
DWIDTH 24 0
BBX 22 31 5 0
BITMAP
01E3C0
01E3C0
01E3C0
01E3C0
000000
000000
1F007C
1F007C
1F007C
3F007C
3E00F8
3E00F8
3E00F8
3E00F8
7E01F8
7C01F0
7C01F0
7C01F0
7C01F0
F803F0
F803E0
F803E0
F803E0
F807E0
F807C0
F80FC0
FE3F80
FFFF00
7FFF00
3FFC00
1FF000
ENDCHAR
STARTCHAR Yacute
ENCODING 221
SWIDTH 667 0
DWIDTH 22 0
BBX 21 31 6 0
BITMAP
001E00
003C00
003800
007000
00E000
000000
FC01F8
7C03F0
7E03E0
7E07E0
3E0FC0
3E0F80
3E1F00
3F3F00
1F3E00
1F7C00
1FFC00
0FF800
0FF000
0FF000
0FE000
07C000
07C000
0FC000
0F8000
0F8000
0F8000
0F8000
1F8000
1F0000
1F0000
ENDCHAR
STARTCHAR Tcedilla
ENCODING 222
SWIDTH 611 0
DWIDTH 20 0
BBX 20 32 5 -7
BITMAP
7FFFF0
7FFFF0
FFFFE0
FFFFE0
01F000
01F000
01F000
01F000
03F000
03E000
03E000
03E000
03E000
07E000
07C000
07C000
07C000
07C000
0F8000
0F8000
0F8000
0F8000
1F8000
1F0000
1F0000
060000
060000
078000
01C000
01C000
3F8000
3F0000
ENDCHAR
STARTCHAR germandbls
ENCODING 223
SWIDTH 611 0
DWIDTH 20 0
BBX 20 25 2 0
BITMAP
003F00
00FFC0
03FFE0
07FFE0
07C3F0
0F81F0
0F81F0
0F81E0
0F03E0
1F0FC0
1F3F80
1F3F80
1F3FC0
1E0FE0
3E07E0
3E03E0
3E03E0
3C03E0
7C07C0
7C0FC0
7C1F80
7CFF00
78FF00
F9FC00
F9F000
ENDCHAR
STARTCHAR racute
ENCODING 224
SWIDTH 389 0
DWIDTH 13 0
BBX 15 25 2 0
BITMAP
001E
003C
0038
0070
00E0
0000
0000
0F0C
0F3C
1F7C
1FFC
1FF8
1F80
1F00
3E00
3E00
3E00
3E00
7C00
7C00
7C00
7C00
7800
F800
F800
ENDCHAR
STARTCHAR aacute
ENCODING 225
SWIDTH 556 0
DWIDTH 18 0
BBX 17 25 2 0
BITMAP
000F00
001E00
001C00
003800
007000
000000
000000
01FC00
07FF00
0FFF80
1F8F80
1E0780
1E0F80
001F80
07FF80
1FFF00
3FFF00
7E1F00
7C1F00
F83E00
F87E00
FFFE00
FFFE00
7FBE00
3E3E00
ENDCHAR
STARTCHAR acircumflex
ENCODING 226
SWIDTH 556 0
DWIDTH 18 0
BBX 17 25 2 0
BITMAP
003C00
007E00
00EE00
01C700
038380
000000
000000
01FE00
07FF00
0FFF80
1F8F80
1E0780
1E0F80
001F80
07FF80
1FFF00
3FFF00
7E1F00
781F00
F83E00
F87E00
FFFE00
FFFE00
7FBE00
3E3E00
ENDCHAR
STARTCHAR abreve
ENCODING 227
SWIDTH 556 0
DWIDTH 18 0
BBX 17 25 2 0
BITMAP
010100
018300
01FE00
00FC00
007800
000000
000000
01FE00
07FF00
0FFF80
1F8F80
1E0780
1E0780
000F80
03FF80
1FFF00
3FFF00
7E1F00
781F00
F83E00
F87E00
FFFE00
FFFE00
7FBE00
3E3E00
ENDCHAR
STARTCHAR adieresis
ENCODING 228
SWIDTH 556 0
DWIDTH 18 0
BBX 17 24 2 0
BITMAP
03C780
03C780
03C780
03C780
000000
000000
01FE00
07FF00
0FFF80
1F8F80
1E0780
1E0F80
001F80
07FF80
1FFF00
3FFF00
7E1F00
781F00
F83E00
F87E00
FFFE00
FFFE00
7FBE00
3E3E00
ENDCHAR
STARTCHAR lacute
ENCODING 229
SWIDTH 278 0
DWIDTH 9 0
BBX 13 31 2 0
BITMAP
0078
00F0
00E0
01C0
0380
0000
07C0
07C0
07C0
0F80
0F80
0F80
0F80
1F00
1F00
1F00
1F00
1F00
3F00
3E00
3E00
3E00
3E00
3E00
7C00
7C00
7C00
7C00
F800
F800
F800
ENDCHAR
STARTCHAR cacute
ENCODING 230
SWIDTH 556 0
DWIDTH 18 0
BBX 17 25 3 0
BITMAP
000F00
001E00
001C00
003800
007000
000000
000000
01F800
07FE00
1FFF00
1FFF00
3E1F80
7C0F80
780F80
780000
F00000
F00000
F00000
F00F00
F01F00
F83E00
FFFE00
7FFC00
7FF000
1FC000
ENDCHAR
STARTCHAR ccedilla
ENCODING 231
SWIDTH 556 0
DWIDTH 18 0
BBX 17 25 3 -7
BITMAP
01FC00
07FE00
1FFF00
1FFF00
3E1F80
7C0F80
7C0F80
F80000
F80000
F80000
F80000
F81E00
F83E00
F87E00
FFFC00
7FF800
7FF000
1FC000
060000
060000
078000
01C000
01C000
3F8000
3F0000
ENDCHAR
STARTCHAR ccaron
ENCODING 232
SWIDTH 556 0
DWIDTH 18 0
BBX 17 25 3 0
BITMAP
038700
01CE00
01DC00
00F800
00F800
000000
000000
01F800
07FE00
1FFF00
1FFF00
3E1F80
7C0F80
780F80
780000
F00000
F00000
F00000
F00F00
F01F00
F83E00
FFFE00
7FFC00
7FF000
1FC000
ENDCHAR
STARTCHAR eacute
ENCODING 233
SWIDTH 556 0
DWIDTH 18 0
BBX 17 25 3 0
BITMAP
003C00
007800
007000
00E000
01C000
000000
000000
01F800
07FE00
1FFF00
1FFF80
3E0F80
7C0F80
7C0F80
FFFF80
FFFF80
FFFF80
F80000
F00000
F01F00
F83E00
FFFC00
7FF800
3FF000
0F8000
ENDCHAR
STARTCHAR eogonek
ENCODING 234
SWIDTH 556 0
DWIDTH 18 0
BBX 17 25 3 -7
BITMAP
01F800
07FE00
1FFF00
1F9F00
3E0F80
7C0780
780780
FFFF80
FFFF80
FFFF80
F00000
F80000
F80F00
7C1F00
7FFE00
3FFC00
1FF800
07E000
070000
0E0000
0E0000
1E0000
1FE000
0FC000
078000
ENDCHAR
STARTCHAR edieresis
ENCODING 235
SWIDTH 556 0
DWIDTH 18 0
BBX 17 24 3 0
BITMAP
078F00
078F00
078F00
078F00
000000
000000
01F800
07FE00
1FFF00
1FFF00
3E0F80
7C0F80
7C0F80
FFFF80
FFFF80
FFFF80
F80000
F00000
F01F00
F83E00
FFFC00
7FF800
3FF000
0F8000
ENDCHAR
STARTCHAR ecaron
ENCODING 236
SWIDTH 556 0
DWIDTH 18 0
BBX 17 25 3 0
BITMAP
038700
01CE00
01DC00
00F800
00F800
000000
000000
01F800
07FE00
1FFF00
1F9F00
3E0F80
7C0780
780780
FFFF80
FFFF80
FFFF80
F00000
F80000
F80F00
7C1F00
7FFE00
3FFC00
1FF800
07E000
ENDCHAR
STARTCHAR iacute
ENCODING 237
SWIDTH 278 0
DWIDTH 9 0
BBX 12 25 2 0
BITMAP
00F0
01E0
01C0
0380
0700
0000
0000
0F80
0F80
1F00
1F00
1F00
1F00
1E00
3E00
3E00
3E00
3E00
7C00
7C00
7C00
7C00
7800
F800
F800
ENDCHAR
STARTCHAR icircumflex
ENCODING 238
SWIDTH 278 0
DWIDTH 9 0
BBX 13 25 2 0
BITMAP
03C0
07E0
0EE0
1C70
3838
0000
0000
0F80
0F80
1F00
1F00
1F00
1F00
1E00
3E00
3E00
3E00
3E00
7C00
7C00
7C00
7C00
7800
F800
F800
ENDCHAR
STARTCHAR dcaron
ENCODING 239
SWIDTH 702 0
DWIDTH 23 0
BBX 25 25 3 0
BITMAP
0000F780
0000F780
0001F780
0001E780
0001E180
0003E100
0003E300
03F3E600
0FFBC000
1FFFC000
1FFFC000
3F1FC000
7E0FC000
7C0F8000
F80F8000
F80F8000
F80F8000
F81F8000
F81F0000
F83F0000
FC7F0000
FFFF0000
7FFE0000
3FDE0000
1F1E0000
ENDCHAR
STARTCHAR dmacron
ENCODING 240
SWIDTH 611 0
DWIDTH 20 0
BBX 21 25 3 0
BITMAP
0000F0
0000F0
0001F0
00FFF8
00FFF8
00FFF8
0003E0
03F3E0
0FFBC0
1FFFC0
1FFFC0
3F1FC0
7E0FC0
7C0F80
F80F80
F80F80
F80F80
F81F80
F81F00
F83F00
FC7F00
FFFF00
7FFE00
3FDE00
1F1E00
ENDCHAR
STARTCHAR nacute
ENCODING 241
SWIDTH 611 0
DWIDTH 20 0
BBX 19 25 2 0
BITMAP
000780
000F00
000E00
001C00
003800
000000
000000
0F1F00
0F7FC0
1FFFC0
1FFFC0
1F87E0
1F03E0
1E03E0
3E07E0
3E07C0
3E07C0
3C07C0
7C0780
7C0F80
7C0F80
7C0F80
780F00
F81F00
F81F00
ENDCHAR
STARTCHAR ncaron
ENCODING 242
SWIDTH 611 0
DWIDTH 20 0
BBX 19 25 2 0
BITMAP
0070E0
0039C0
003B80
001F00
001F00
000000
000000
0F1F00
0F7FC0
1FFFC0
1FFFC0
1F87E0
1F03E0
1E03E0
3E07E0
3E07C0
3E07C0
3C07C0
7C0780
7C0F80
7C0F80
7C0F80
780F00
F81F00
F81F00
ENDCHAR
STARTCHAR oacute
ENCODING 243
SWIDTH 611 0
DWIDTH 20 0
BBX 18 25 3 0
BITMAP
001E00
003C00
003800
007000
00E000
000000
000000
01FC00
07FF00
0FFF80
1FFFC0
3F0FC0
7E07C0
7C07C0
7807C0
F807C0
F807C0
F80F80
F80F80
F81F80
FC3F00
FFFE00
7FFC00
3FF800
0FE000
ENDCHAR
STARTCHAR ocircumflex
ENCODING 244
SWIDTH 611 0
DWIDTH 20 0
BBX 18 25 3 0
BITMAP
003C00
007E00
00EE00
01C700
038380
000000
000000
01FC00
07FF00
0FFF80
1FFFC0
3F0FC0
7E07C0
7C07C0
7807C0
F807C0
F807C0
F80F80
F80F80
F81F80
FC3F00
FFFE00
7FFC00
3FF800
0FE000
ENDCHAR
STARTCHAR ohungarumlaut
ENCODING 245
SWIDTH 611 0
DWIDTH 20 0
BBX 19 25 3 0
BITMAP
0079E0
00F3C0
00E380
01C700
018600
000000
000000
01FC00
07FF00
0FFF80
1FFFC0
3F0FC0
7E07C0
7C07C0
7C07C0
F807C0
F807C0
F80F80
F80F80
F81F80
FC3F00
7FFE00
7FFC00
3FF800
0FE000
ENDCHAR
STARTCHAR odieresis
ENCODING 246
SWIDTH 611 0
DWIDTH 20 0
BBX 18 24 3 0
BITMAP
03C780
03C780
03C780
03C780
000000
000000
01FC00
07FF00
0FFF80
1FFFC0
3F0FC0
7E07C0
7C07C0
7807C0
F807C0
F807C0
F80F80
F80F80
F81F80
FC3F00
FFFE00
7FFC00
3FF800
0FE000
ENDCHAR
STARTCHAR divide
ENCODING 247
SWIDTH 584 0
DWIDTH 19 0
BBX 17 16 3 0
BITMAP
007000
00F000
00F000
00E000
000000
000000
7FFF80
7FFF80
FFFF00
FFFF00
000000
000000
03C000
07C000
07C000
078000
ENDCHAR
STARTCHAR rcaron
ENCODING 248
SWIDTH 389 0
DWIDTH 13 0
BBX 16 25 2 0
BITMAP
0387
01CE
01DC
00F8
00F8
0000
0000
0F0C
0F3C
1F7C
1FFC
1FF8
1F80
1F00
3E00
3E00
3E00
3E00
7C00
7C00
7C00
7C00
7800
F800
F800
ENDCHAR
STARTCHAR uring
ENCODING 249
SWIDTH 611 0
DWIDTH 20 0
BBX 19 25 3 0
BITMAP
001C00
003600
002600
006600
006C00
003800
000000
1F03E0
1F03E0
1E03E0
3E07C0
3E07C0
3C07C0
3C0780
7C0F80
7C0F80
7C0F80
780F80
F81F00
F81F00
FC3F00
FFFF00
FFFE00
7FDE00
1F1E00
ENDCHAR
STARTCHAR uacute
ENCODING 250
SWIDTH 611 0
DWIDTH 20 0
BBX 19 25 3 0
BITMAP
000F00
001E00
001C00
003800
007000
000000
000000
1F03E0
1F03E0
1E03E0
3E07C0
3E07C0
3C07C0
3C0780
7C0F80
7C0F80
7C0F80
780F80
F81F00
F81F00
FC3F00
FFFF00
FFFE00
7FDE00
1F1E00
ENDCHAR
STARTCHAR uhungarumlaut
ENCODING 251
SWIDTH 611 0
DWIDTH 20 0
BBX 19 25 3 0
BITMAP
0079E0
00F3C0
00E380
01C700
018600
000000
000000
1F03E0
1F03E0
1E03E0
3E07C0
3E07C0
3C07C0
3C0780
7C0F80
7C0F80
7C0F80
780F80
F81F00
F81F00
FC3F00
FFFF00
FFFE00
7FDE00
1F1E00
ENDCHAR
STARTCHAR udieresis
ENCODING 252
SWIDTH 611 0
DWIDTH 20 0
BBX 19 24 3 0
BITMAP
03C780
03C780
03C780
03C780
000000
000000
1F03E0
1F03E0
1E03E0
3E07C0
3E07C0
3C07C0
3C0780
7C0F80
7C0F80
7C0F80
780F80
F81F00
F81F00
FC3F00
FFFF00
FFFE00
7FDE00
1F1E00
ENDCHAR
STARTCHAR yacute
ENCODING 253
SWIDTH 556 0
DWIDTH 19 0
BBX 21 31 1 -7
BITMAP
000780
000F00
000E00
001C00
003800
000000
1F00F8
1F01F0
1F01E0
1F83E0
0F83C0
0F87C0
0F8780
0F8F80
0F8F00
0F9E00
079E00
07BC00
07FC00
07F800
07F800
07F000
07E000
03E000
07C000
07C000
0F8000
7F8000
7F0000
FE0000
F80000
ENDCHAR
STARTCHAR tcedilla
ENCODING 254
SWIDTH 333 0
DWIDTH 11 0
BBX 10 29 4 -7
BITMAP
1F00
1F00
1F00
1F00
7FC0
FFC0
FF80
3E00
3E00
3E00
7C00
7C00
7C00
7C00
7C00
F800
F800
F800
FE00
FE00
FE00
7C00
1800
1800
1E00
0700
0700
FE00
FC00
ENDCHAR
STARTCHAR dotaccent
ENCODING 255
SWIDTH 304 0
DWIDTH 10 0
BBX 4 4 3 21
BITMAP
F0
F0
F0
F0
ENDCHAR
ENDFONT
